<svg xmlns="http://www.w3.org/2000/svg" xmlns:xlink="http://www.w3.org/1999/xlink" width="2000" zoomAndPan="magnify" viewBox="0 0 1500 1499.999933" height="2000" preserveAspectRatio="xMidYMid meet" version="1.0"><defs><g/><clipPath id="4f0c7919ea"><rect x="0" width="1283" y="0" height="353"/></clipPath></defs><g transform="matrix(1, 0, 0, 1, 85, 512)"><g clip-path="url(#4f0c7919ea)"><g fill="#ffffff" fill-opacity="1"><g transform="translate(65.00002, 285.527925)"><g><path d="M 15.484375 -210.859375 L 139.25 -210.859375 L 147.828125 -202.265625 L 147.828125 -157.03125 L 74.21875 -157.03125 L 74.21875 -129.125 C 74.21875 -127.175781 81.734375 -125.4375 96.765625 -123.90625 L 113.9375 -125.140625 L 128.046875 -120.84375 L 140.78125 -125.140625 L 140.78125 -71 L 122.53125 -68.390625 L 118.234375 -68.390625 L 88.328125 -71 L 85.5625 -66.859375 L 85.5625 -71 L 74.21875 -68.390625 L 72.6875 -6.90625 C 72.6875 -1.175781 68.394531 1.6875 59.8125 1.6875 L 12.734375 -1.078125 L 12.734375 -5.375 L 17.015625 -9.65625 L 12.734375 -13.953125 L 12.734375 -18.09375 L 17.015625 -22.390625 L 12.734375 -26.6875 L 12.734375 -43.859375 L 15.484375 -90.9375 L 11.1875 -108.109375 L 15.484375 -108.109375 L 11.1875 -112.40625 L 11.1875 -116.703125 L 15.484375 -155.1875 L 11.1875 -168.078125 L 15.484375 -168.078125 L 11.1875 -172.21875 L 11.1875 -176.5 L 15.484375 -180.796875 L 11.1875 -185.09375 Z M 88.484375 -208.703125 L 89.5625 -208.703125 L 90.484375 -206.71875 L 89.5625 -206.25 L 87.40625 -206.25 Z M 68.703125 -207.171875 L 70.234375 -207.171875 L 70.234375 -206.71875 L 68.703125 -205.796875 Z M 87.40625 -205.796875 L 88.484375 -205.796875 L 91.546875 -204.5625 L 90.484375 -204.5625 L 87.40625 -205.03125 Z M 69.78125 -203.5 L 69.78125 -203.03125 L 67.625 -202.109375 L 67.625 -202.578125 Z M 78.828125 -203.5 L 79.28125 -203.03125 L 79.28125 -202.109375 L 76.671875 -202.578125 Z M 86.796875 -203.5 L 87.40625 -203.5 L 89.5625 -202.578125 L 88.484375 -201.34375 L 86.796875 -202.109375 Z M 58.421875 -201.5 L 59.5 -201.5 L 59.5 -200.28125 L 57.359375 -200.28125 Z M 86.796875 -200.890625 L 87.40625 -200.890625 L 87.40625 -198.4375 L 85.71875 -199.359375 Z M 64.40625 -198.4375 L 63.328125 -196.140625 L 66.546875 -196.140625 L 66.546875 -196.59375 L 65.484375 -197.203125 L 65.484375 -197.671875 L 66.546875 -197.828125 L 65.484375 -198.4375 Z M 96.453125 -198.890625 L 96.453125 -196.59375 L 92.625 -197.203125 L 92.625 -197.828125 Z M 57.359375 -197.203125 L 57.359375 -195.671875 L 59.5 -195.671875 L 59.5 -197.203125 Z M 125.75 -197.671875 L 127.890625 -196.59375 L 126.828125 -196.140625 L 125.75 -196.140625 Z M 63.328125 -194.609375 L 65.484375 -194.609375 L 62.265625 -193.375 L 63.328125 -191.53125 L 64.40625 -192 L 65.484375 -192 L 65.484375 -190.921875 L 63.328125 -190.921875 L 63.328125 -190.46875 L 66.546875 -190.46875 L 67.625 -192.453125 L 68.703125 -192.453125 L 69.78125 -192 L 70.234375 -192 L 71.3125 -192.453125 L 71.3125 -192.921875 C 68.132812 -192.921875 66.546875 -193.6875 66.546875 -195.21875 L 66.546875 -195.671875 L 65.484375 -195.671875 Z M 116.703125 -196.140625 L 118.84375 -194.609375 L 117.78125 -194.140625 L 116.703125 -194.140625 L 114.546875 -195.671875 L 115.625 -196.140625 Z M 127.890625 -196.140625 L 131.734375 -196.140625 L 131.734375 -195.671875 L 127.890625 -195.671875 Z M 127.890625 -195.671875 L 128.96875 -194.140625 L 131.734375 -194.609375 L 132.796875 -194.609375 L 132.796875 -194.140625 L 130.65625 -194.140625 L 131.734375 -193.6875 L 131.734375 -192.921875 L 127.890625 -193.6875 L 127.890625 -192.453125 L 129.578125 -192.453125 L 126.828125 -190.921875 L 126.828125 -192.453125 L 125.75 -192 L 123.75 -192 L 123.75 -193.375 Z M 113.015625 -195.21875 L 111.953125 -194.609375 L 111.953125 -194.140625 L 113.015625 -194.609375 L 114.546875 -194.609375 L 114.546875 -193.6875 L 113.015625 -193.6875 L 113.484375 -190.46875 C 111.023438 -190.769531 109.796875 -191.429688 109.796875 -192.453125 L 108.71875 -192.453125 L 108.71875 -190.921875 L 107.65625 -190.921875 L 107.65625 -192 L 106.578125 -192.453125 L 107.65625 -192.921875 L 108.71875 -194.609375 Z M 102.890625 -194.609375 L 103.96875 -194.609375 L 105.5 -193.6875 L 102.890625 -193.6875 Z M 58.421875 -193.375 L 60.578125 -192.453125 L 61.640625 -192.921875 L 61.640625 -193.6875 Z M 121 -194.140625 L 121.609375 -193.6875 L 121.609375 -191.53125 L 121 -191.53125 C 121 -192.457031 119.925781 -192.921875 117.78125 -192.921875 L 116.703125 -193.375 L 116.703125 -193.6875 Z M 77.75 -192.453125 C 77.75 -191.835938 78.617188 -191.53125 80.359375 -191.53125 L 81.421875 -190.921875 L 81.421875 -190.46875 L 79.28125 -190.46875 L 79.28125 -190 L 81.421875 -190 L 82.5 -190.46875 L 82.5 -192 C 81.070312 -192 80.359375 -192.457031 80.359375 -193.375 L 79.28125 -193.375 Z M 114.546875 -192.453125 L 116.703125 -192.453125 L 116.703125 -192 L 115.625 -189.6875 L 114.546875 -189.6875 L 114.546875 -190.921875 L 115.625 -190.921875 L 114.546875 -191.53125 Z M 72.375 -190.921875 L 72.375 -190.46875 L 75.609375 -190.46875 L 75.609375 -191.53125 Z M 118.84375 -192 L 119.921875 -192 L 121 -190 L 117.78125 -189.6875 L 117.78125 -190.46875 Z M 121.609375 -190.46875 L 124.671875 -190 L 124.671875 -189.6875 L 121 -189.234375 L 121 -189.6875 L 121.609375 -190 Z M 131.734375 -190 C 133.160156 -190 134.585938 -189.285156 136.015625 -187.859375 L 134.953125 -187.859375 C 133.515625 -187.859375 132.441406 -188.570312 131.734375 -190 Z M 111.953125 -188.3125 C 111.953125 -186.988281 110.875 -186.328125 108.71875 -186.328125 L 107.65625 -186.78125 L 108.71875 -185.09375 L 110.875 -185.09375 L 113.015625 -187.859375 L 113.015625 -188.3125 Z M 138.171875 -186.328125 L 138.625 -186.328125 L 140.78125 -185.546875 L 139.703125 -185.546875 Z M 104.4375 -183.5625 L 105.5 -183.09375 L 106.578125 -183.09375 L 106.578125 -184.640625 Z M 138.171875 -185.09375 L 138.625 -185.09375 L 139.703125 -183.09375 L 138.625 -182.640625 L 137.09375 -182.640625 Z M 113.015625 -179.875 L 113.015625 -178.953125 L 114.546875 -179.875 L 113.484375 -180.34375 L 114.546875 -180.953125 L 113.484375 -181.40625 L 115.625 -182.1875 L 116.703125 -181.875 L 117.78125 -182.1875 L 119.921875 -182.1875 L 121 -180.953125 L 119.921875 -180.34375 L 121 -180.34375 L 121.609375 -180.953125 L 119.921875 -183.5625 C 115.628906 -183.5625 113.328125 -182.332031 113.015625 -179.875 Z M 124.671875 -182.640625 L 125.75 -182.1875 L 124.671875 -181.875 L 124.671875 -180.953125 L 126.828125 -181.875 L 126.828125 -182.640625 Z M 115.625 -179.875 L 114.546875 -178.5 L 117.78125 -178.953125 L 117.78125 -179.875 Z M 128.96875 -177.734375 L 129.578125 -176.203125 L 130.65625 -176.203125 L 130.65625 -178.953125 C 129.53125 -178.953125 128.96875 -178.546875 128.96875 -177.734375 Z M -63.328125 -176.203125 L -61.1875 -175.28125 L -60.109375 -175.28125 L -60.109375 -176.203125 Z M 105.5 -175.28125 L 106.578125 -174.671875 L 106.578125 -174.046875 L 105.5 -173.4375 L 105.5 -172.984375 L 106.578125 -172.984375 L 108.71875 -174.203125 L 108.71875 -174.671875 Z M 136.015625 -172.0625 L 137.09375 -170.53125 L 138.625 -171.59375 L 138.171875 -172.0625 Z M 133.875 -170.53125 L 133.875 -169.765625 L 137.09375 -169.765625 L 134.953125 -170.53125 Z M 132.953125 -120.53125 L 132.953125 -120.078125 L 135.109375 -120.078125 L 135.109375 -119.609375 L 132.953125 -119.609375 L 132.953125 -119.15625 L 135.5625 -119.15625 L 135.5625 -120.53125 Z M 107.65625 -117.921875 L 107.65625 -117.3125 L 110.875 -117.921875 L 110.875 -118.84375 L 109.796875 -118.84375 Z M 132.953125 -116.859375 L 132.953125 -116.390625 L 135.109375 -115.46875 L 135.109375 -115.9375 Z M 45.078125 -111.03125 L 45.078125 -109.03125 L 40.328125 -110.40625 C 41.046875 -109.1875 42.476562 -108.578125 44.625 -108.578125 C 44.625 -107.859375 43.550781 -107.5 41.40625 -107.5 L 41.40625 -107.34375 L 43.546875 -107.34375 L 45.078125 -107.953125 L 45.078125 -107.34375 L 44.625 -106.734375 L 44.625 -106.265625 L 45.078125 -106.265625 L 48.3125 -109.03125 C 46.875 -109.03125 46.15625 -109.695312 46.15625 -111.03125 Z M 31.28125 -108.578125 L 32.359375 -107.34375 L 33.4375 -107.34375 L 33.4375 -107.953125 L 32.359375 -108.578125 Z M 135.109375 -94.765625 L 135.109375 -94.15625 L 136.640625 -94.15625 L 136.640625 -95.390625 Z M 131.875 -82.65625 L 131.875 -82.203125 L 134.03125 -83.109375 L 134.03125 -83.578125 Z M 135.109375 -82.65625 L 135.109375 -82.203125 L 136.640625 -83.109375 L 136.640625 -83.578125 Z M 113.015625 -83.109375 L 114.546875 -82.203125 L 115.625 -82.65625 L 115.625 -83.109375 Z M 114.546875 -37.578125 L 113.484375 -36.34375 L 113.484375 -35.890625 L 114.546875 -35.890625 L 115.625 -37.109375 L 115.625 -37.578125 Z M 134.953125 -37.109375 L 133.875 -35.890625 L 134.953125 -35.890625 L 136.015625 -36.34375 L 136.015625 -37.109375 Z M 137.09375 -37.109375 C 137.09375 -35.679688 135.660156 -34.96875 132.796875 -34.96875 L 132.796875 -34.34375 L 134.953125 -34.34375 L 134.953125 -33.890625 L 133.875 -33.4375 L 133.875 -32.96875 L 134.953125 -32.65625 L 137.09375 -32.65625 L 137.09375 -32.96875 L 136.015625 -34.34375 L 138.625 -33.4375 L 139.703125 -34.96875 C 138.679688 -34.96875 138.171875 -35.679688 138.171875 -37.109375 Z M 111.953125 -26.984375 L 110.875 -24.84375 L 113.484375 -24.234375 L 113.015625 -24.84375 L 113.015625 -25 L 113.484375 -26.984375 Z M 122.6875 -26.0625 L 123.75 -25.453125 L 124.671875 -25.453125 L 124.671875 -26.984375 Z M 99.671875 -26.53125 L 99.671875 -25 L 101.828125 -25 L 101.828125 -26.53125 Z M 104.4375 -26.0625 L 104.4375 -25.453125 L 105.5 -24.234375 L 103.96875 -24.234375 L 103.96875 -23.765625 L 105.5 -22.84375 L 109.796875 -23.765625 L 109.796875 -25 L 108.71875 -24.84375 L 107.65625 -24.84375 L 106.578125 -26.0625 Z M 132.796875 -26.0625 L 134.953125 -26.0625 L 134.953125 -24.84375 L 132.796875 -24.84375 Z M 123.75 -20.546875 L 124.671875 -20.546875 L 125.75 -19.171875 L 124.671875 -18.703125 L 123.75 -18.703125 Z M 129.578125 -20.546875 L 131.734375 -20.546875 L 131.734375 -19.625 L 128.96875 -18.09375 L 128.96875 -18.703125 Z M 121.609375 -18.703125 L 123.75 -17.640625 L 123.75 -17.171875 L 121.609375 -17.171875 Z M 133.875 -17.640625 L 133.875 -15.484375 L 132.796875 -15.484375 L 131.734375 -17.171875 L 132.796875 -17.640625 Z M 114.546875 -13.953125 L 116.703125 -13.03125 L 117.78125 -13.03125 L 115.625 -13.953125 Z M 126.828125 -13.03125 L 126.828125 -12.734375 L 127.890625 -12.265625 L 126.828125 -11.8125 L 126.828125 -10.734375 L 127.890625 -10.734375 L 128.96875 -13.03125 Z M 137.09375 -11.8125 L 134.953125 -10.734375 L 134.953125 -10.28125 L 137.09375 -10.28125 L 138.171875 -10.734375 L 138.171875 -11.8125 Z M 108.71875 -8.59375 L 108.71875 -7.046875 L 109.796875 -6.59375 L 110.875 -6.59375 L 110.875 -7.046875 L 109.796875 -8.59375 Z M 129.578125 -4.90625 L 129.578125 -3.375 L 132.796875 -4.90625 Z M 129.578125 -4.90625 "/></g></g><g transform="translate(214.212782, 285.527925)"><g><path d="M 71 -213.46875 L 71 -212.84375 L 71.609375 -213.46875 C 75.085938 -213.050781 76.828125 -212.4375 76.828125 -211.625 C 76.617188 -207.945312 76.257812 -206.109375 75.75 -206.109375 L 76.828125 -203.03125 L 76.21875 -202.421875 L 76.21875 -201.8125 L 77.4375 -198.125 L 76.828125 -195.0625 L 76.828125 -184.640625 L 75.75 -184.640625 L 75.75 -184.015625 L 76.828125 -182.1875 L 76.828125 -181.5625 L 76.21875 -178.5 L 77.4375 -171.75 L 76.828125 -171.140625 L 76.828125 -165 L 77.4375 -164.390625 L 76.828125 -163.78125 L 76.828125 -161.328125 L 77.4375 -160.71875 L 76.828125 -160.09375 L 76.828125 -159.484375 L 77.4375 -157.640625 L 76.828125 -157.03125 L 76.21875 -157.03125 L 76.828125 -156.421875 L 76.828125 -155.1875 L 76.21875 -154.578125 L 77.4375 -147.828125 L 76.828125 -147.21875 L 76.828125 -146.609375 L 77.4375 -142.921875 L 76.828125 -142.3125 L 76.828125 -141.703125 L 77.4375 -141.078125 L 77.4375 -140.46875 L 76.828125 -138.625 L 77.4375 -138.625 L 76.828125 -136.78125 L 76.21875 -137.40625 L 75.75 -137.40625 L 75.140625 -136.78125 L 75.140625 -136.171875 L 76.21875 -134.953125 L 76.21875 -134.328125 L 75.140625 -134.328125 L 75.140625 -133.71875 L 76.828125 -131.265625 L 76.828125 -126.96875 L 77.4375 -124.515625 L 76.21875 -120.84375 L 77.4375 -120.84375 L 76.828125 -118.390625 L 77.4375 -116.546875 L 76.828125 -111.03125 L 76.828125 -108.578125 L 77.4375 -107.953125 L 76.21875 -104.890625 L 77.4375 -101.828125 L 76.828125 -101.21875 L 76.828125 -100.59375 L 77.4375 -98.765625 L 75.140625 -98.140625 L 75.75 -97.53125 L 75.75 -96.921875 L 74.53125 -95.6875 L 73.296875 -95.6875 C 73.296875 -96.613281 72.53125 -97.640625 71 -98.765625 L 68.703125 -97.53125 L 66.859375 -98.140625 L 66.859375 -96.921875 L 66.25 -96.921875 L 66.25 -98.140625 L 65.78125 -98.140625 L 65.78125 -97.53125 C 66.09375 -95.894531 67.066406 -95.078125 68.703125 -95.078125 L 68.703125 -96.921875 L 70.390625 -96.921875 L 73.921875 -95.078125 L 75.75 -95.6875 L 76.21875 -95.078125 L 76.21875 -94.46875 L 75.75 -94.46875 L 77.4375 -91.390625 L 76.21875 -91.390625 L 76.21875 -90.78125 L 76.828125 -90.171875 L 76.828125 -89.5625 L 76.21875 -89.5625 L 76.828125 -88.9375 L 76.828125 -88.328125 L 74.53125 -85.875 L 73.296875 -87.109375 L 72.6875 -87.109375 L 71.609375 -85.875 L 71.609375 -84.03125 L 72.234375 -84.03125 L 72.234375 -85.265625 L 72.6875 -84.65625 L 73.296875 -84.65625 L 76.21875 -85.875 C 76.21875 -83.425781 76.625 -81.789062 77.4375 -80.96875 L 76.828125 -80.359375 L 76.21875 -80.359375 L 76.828125 -77.28125 L 76.21875 -76.671875 L 76.21875 -76.0625 L 76.828125 -73.609375 L 76.21875 -73 L 76.21875 -72.375 L 77.4375 -69.3125 L 75.75 -68.703125 L 75.75 -68.09375 L 76.828125 -66.25 L 76.21875 -64.40625 L 77.4375 -64.40625 L 76.828125 -63.796875 L 76.828125 -63.1875 L 77.4375 -62.5625 C 77.4375 -61.34375 76.671875 -60.734375 75.140625 -60.734375 L 75.140625 -60.109375 L 76.21875 -60.109375 L 77.4375 -58.890625 L 77.4375 -58.265625 L 76.21875 -56.4375 L 77.4375 -53.359375 L 76.828125 -52.75 L 77.4375 -52.75 C 77.4375 -50.09375 76.054688 -48.253906 73.296875 -47.234375 L 73.296875 -46.625 L 73.921875 -46 L 74.53125 -46 L 75.140625 -47.84375 L 75.75 -47.234375 L 76.21875 -47.234375 L 76.828125 -47.84375 L 77.4375 -44.171875 L 76.828125 -44.171875 L 77.4375 -43.546875 L 77.4375 -42.9375 L 76.828125 -42.328125 L 77.4375 -39.265625 L 77.4375 -38.03125 L 76.828125 -38.640625 L 76.21875 -38.640625 L 76.21875 -37.421875 L 75.75 -38.03125 L 75.140625 -38.03125 L 75.140625 -36.796875 L 75.75 -36.796875 L 76.21875 -37.421875 L 76.828125 -37.421875 L 77.4375 -33.125 L 77.4375 -30.671875 L 76.828125 -30.0625 L 77.4375 -29.4375 L 77.4375 -28.21875 L 76.828125 -25.765625 L 77.4375 -23.3125 L 76.828125 -22.703125 L 76.828125 -22.078125 L 77.4375 -21.46875 L 76.828125 -18.40625 L 76.828125 -17.171875 L 77.4375 -16.5625 L 77.4375 -15.953125 L 76.828125 -15.953125 L 77.4375 -14.109375 L 76.828125 -12.265625 L 77.4375 -7.96875 L 76.828125 -7.359375 L 76.828125 -6.75 L 77.4375 -4.90625 L 76.828125 -4.296875 L 76.828125 -3.6875 L 77.4375 -1.234375 L 76.21875 0 L 73.921875 0 L 68.703125 0.453125 L 66.25 0 L 63.953125 0.453125 L 59.953125 0 L 58.125 0.453125 L 55.203125 0 L 44.625 0.453125 L 44.015625 0 L 43.546875 0.453125 L 43.546875 0 L 41.71875 0.453125 L 41.09375 0 L 38.1875 0.453125 L 36.5 0 L 33.578125 0.453125 L 30.0625 0.453125 L 29.4375 0 L 28.828125 0 L 28.21875 0.453125 L 28.21875 0 L 27.75 0.453125 L 20.703125 0.453125 C 16.410156 0.453125 14.265625 -0.109375 14.265625 -1.234375 L 15.328125 -2.453125 L 14.875 -3.0625 L 14.875 -3.6875 C 14.976562 -6.539062 15.335938 -7.96875 15.953125 -7.96875 L 15.328125 -8.59375 L 15.328125 -9.203125 L 15.953125 -9.8125 L 15.953125 -10.421875 L 15.328125 -11.046875 L 14.875 -11.046875 L 15.328125 -12.875 L 15.953125 -12.265625 L 16.5625 -12.265625 L 16.5625 -13.5 L 15.953125 -13.5 L 15.328125 -12.875 L 14.875 -12.875 L 14.875 -14.71875 L 15.953125 -14.71875 L 15.953125 -15.328125 L 14.265625 -18.40625 L 14.875 -20.25 L 14.265625 -22.703125 L 14.875 -24.53125 L 14.265625 -25.15625 L 14.265625 -25.765625 L 14.875 -29.4375 L 15.953125 -29.4375 L 15.328125 -28.828125 L 15.328125 -28.21875 L 15.953125 -28.21875 L 17.171875 -29.4375 C 15.234375 -29.75 14.265625 -30.363281 14.265625 -31.28125 L 14.875 -31.890625 L 14.875 -32.515625 L 14.265625 -34.34375 L 14.875 -34.34375 L 14.265625 -34.96875 L 14.265625 -37.421875 L 14.875 -39.265625 L 14.265625 -42.328125 L 14.265625 -52.140625 L 13.640625 -54.59375 L 14.875 -59.5 L 13.640625 -66.25 L 14.265625 -66.859375 L 13.640625 -66.859375 L 14.265625 -67.46875 L 14.265625 -68.09375 L 13.640625 -68.703125 L 14.265625 -69.3125 L 14.265625 -78.515625 L 14.875 -80.96875 L 14.265625 -83.421875 L 14.265625 -84.03125 L 14.875 -85.875 L 14.265625 -88.9375 L 14.265625 -103.671875 L 14.875 -106.125 L 13.640625 -110.40625 L 14.265625 -111.03125 L 14.265625 -132.5 L 13.640625 -133.109375 L 15.328125 -141.703125 L 13.640625 -149.671875 L 14.875 -152.734375 L 14.265625 -152.734375 L 14.875 -153.34375 L 14.875 -154.578125 L 14.265625 -155.1875 L 14.265625 -155.796875 L 15.328125 -157.03125 L 15.328125 -157.640625 L 14.265625 -157.640625 L 15.328125 -159.484375 L 14.875 -159.484375 L 15.328125 -161.328125 L 14.265625 -163.78125 L 14.875 -163.78125 L 14.265625 -164.390625 L 14.265625 -169.296875 L 14.875 -173.59375 L 14.265625 -174.203125 L 14.875 -174.203125 L 14.265625 -174.8125 L 14.265625 -176.046875 L 14.875 -176.65625 L 13.640625 -180.34375 L 14.265625 -180.953125 L 14.265625 -193.21875 L 14.875 -196.90625 L 14.265625 -199.96875 L 14.265625 -200.578125 L 15.953125 -205.484375 L 16.5625 -205.484375 L 16.5625 -204.265625 L 17.78125 -204.265625 L 18.859375 -205.484375 L 17.78125 -206.71875 L 18.40625 -208.5625 L 17.78125 -208.5625 L 17.171875 -209.171875 L 17.171875 -209.78125 L 16.5625 -209.171875 L 14.875 -209.171875 L 15.328125 -211.015625 L 16.5625 -211.015625 L 17.171875 -210.390625 L 17.78125 -210.390625 C 17.78125 -211.515625 19.113281 -212.332031 21.78125 -212.84375 L 22.390625 -212.234375 L 23 -212.234375 L 25.296875 -212.84375 L 26.53125 -211.625 L 26.53125 -212.84375 L 27.140625 -212.84375 L 29.4375 -212.234375 L 30.0625 -212.84375 L 32.96875 -212.234375 L 40.03125 -212.234375 L 40.640625 -211.625 L 41.09375 -211.625 L 41.09375 -212.84375 L 42.328125 -212.84375 L 42.9375 -212.234375 L 43.546875 -212.84375 L 44.625 -212.84375 L 47.078125 -212.234375 L 49.375 -212.84375 L 51.0625 -212.234375 L 53.984375 -212.84375 L 55.8125 -212.84375 L 59.34375 -212.234375 L 59.953125 -212.84375 L 60.421875 -212.84375 L 61.03125 -212.234375 Z M 31.125 -211.015625 L 31.125 -210.390625 L 31.75 -208.5625 L 32.96875 -208.5625 L 32.96875 -209.78125 L 31.75 -211.015625 Z M 58.125 -210.390625 L 58.125 -209.171875 L 59.953125 -209.171875 L 58.734375 -210.390625 Z M 44.015625 -207.9375 L 44.625 -207.9375 L 45.234375 -208.5625 L 45.859375 -207.9375 L 45.859375 -209.171875 L 45.234375 -209.171875 Z M 32.359375 -207.9375 L 33.578125 -206.71875 L 34.203125 -207.328125 L 34.65625 -207.328125 L 34.65625 -206.109375 L 35.890625 -206.109375 L 34.65625 -208.5625 Z M 59.65625 -184.640625 L 59.65625 -183.5625 L 61.796875 -181.40625 L 61.796875 -182.484375 Z M 72.84375 -179.421875 L 71.765625 -175.125 L 73.921875 -175.125 L 74.6875 -179.421875 Z M 37.578125 -175.125 L 37.578125 -174.046875 L 38.640625 -172.984375 L 38.640625 -172.0625 L 36.5 -169.90625 L 37.578125 -166.6875 L 36.5 -162.546875 C 37.21875 -157.640625 38.289062 -155.1875 39.71875 -155.1875 L 40.796875 -155.1875 L 40.796875 -157.34375 L 39.71875 -156.265625 L 38.640625 -156.265625 L 38.640625 -158.265625 C 41.296875 -158.265625 42.625 -158.976562 42.625 -160.40625 L 42.625 -161.484375 L 39.71875 -162.546875 L 40.796875 -165.625 L 38.640625 -169.90625 L 39.71875 -170.984375 L 38.640625 -172.0625 L 41.5625 -172.984375 L 41.5625 -175.125 L 40.796875 -174.046875 L 39.71875 -175.125 Z M 47.6875 -161.484375 L 47.6875 -157.34375 L 49.6875 -159.328125 Z M 52.59375 -160.40625 L 51.828125 -159.328125 L 51.828125 -158.265625 L 52.59375 -157.34375 L 54.75 -157.34375 L 54.75 -158.265625 Z M 77.90625 -159.328125 L 77.90625 -158.265625 L 80.046875 -153.046875 L 81.890625 -153.046875 L 80.046875 -159.328125 Z M 20.546875 -155.1875 L 20.546875 -154.125 L 23.609375 -153.046875 L 24.6875 -154.125 L 24.6875 -156.265625 L 23.609375 -156.265625 Z M 36.5 -154.125 L 36.5 -149.828125 L 38.640625 -147.828125 L 41.5625 -147.828125 C 41.5625 -151.609375 39.875 -153.707031 36.5 -154.125 Z M 65.78125 -154.125 L 65.78125 -153.046875 L 67.9375 -150.890625 L 69.78125 -150.890625 L 69.78125 -154.125 Z M 29.75 -147.828125 L 29.75 -145.6875 L 30.828125 -145.6875 L 32.65625 -147.828125 Z M 45.859375 -128.8125 L 47.6875 -126.671875 C 50.445312 -127.796875 51.828125 -128.867188 51.828125 -129.890625 C 50.398438 -129.890625 49.6875 -130.960938 49.6875 -133.109375 Z M 65.78125 -122.53125 L 63.640625 -119.3125 L 64.71875 -116.234375 L 67.9375 -117.3125 L 67.9375 -120.375 Z M 85.71875 -115.171875 L 90.015625 -115.171875 L 87.875 -117.3125 Z M 53.671875 -115.171875 L 52.59375 -111.953125 L 53.671875 -110.875 L 54.75 -110.875 L 54.75 -115.171875 Z M 63.640625 -101.515625 L 63.640625 -98.296875 L 67.9375 -99.375 L 65.78125 -101.515625 Z M 45.859375 -94.15625 L 44.78125 -93.078125 L 44.78125 -89.859375 L 47.6875 -89.859375 L 48.609375 -94.15625 L 47.6875 -94.15625 L 46.765625 -93.078125 Z M 16.5625 -86.796875 L 18.703125 -84.65625 L 19.78125 -84.65625 L 19.78125 -86.796875 Z M 62.875 -86.796875 L 62.875 -83.578125 L 64.71875 -81.421875 L 65.78125 -85.71875 L 64.71875 -86.796875 Z M 65.78125 -77.28125 L 65.78125 -75.140625 L 67.9375 -75.140625 L 69.78125 -77.28125 L 67.9375 -79.4375 Z M 74.6875 -78.359375 L 74.6875 -77.28125 L 76.828125 -75.140625 L 77.90625 -76.21875 L 77.90625 -77.28125 L 76.828125 -78.359375 Z M 27.609375 -75.140625 L 27.609375 -73 L 32.65625 -71.921875 L 32.65625 -74.0625 L 30.828125 -76.21875 Z M 69.78125 -53.0625 L 69.015625 -49.84375 L 75.75 -46.765625 L 75.75 -51.984375 Z M 74.6875 -36.1875 L 74.6875 -34.046875 L 76.828125 -32.046875 L 77.90625 -32.046875 L 77.90625 -34.046875 Z M 74.6875 -36.1875 "/></g></g><g transform="translate(306.378115, 285.527925)"><g><path d="M 37.265625 -184.171875 L 35.890625 -182.796875 L 35.890625 -181.40625 L 40.03125 -182.796875 L 40.03125 -184.171875 Z M 112.5625 -11.96875 L 117.46875 -6.59375 L 119.921875 -6.59375 L 120.234375 -11.65625 Z M 105.203125 -17.484375 L 107.34375 -9.65625 L 109.953125 -9.5 L 110.265625 -17.171875 Z M 113.9375 -40.03125 L 113.328125 -27.296875 L 118.6875 -32.046875 L 116.390625 -39.875 Z M 78.359375 -44.171875 L 78.0625 -36.65625 L 83.421875 -41.40625 L 83.421875 -44.015625 Z M 134.484375 -44.171875 L 128.96875 -34.203125 L 139.546875 -41.25 L 137.09375 -44.015625 Z M 109.5 -52.90625 L 111.640625 -45.234375 L 114.09375 -45.078125 L 114.546875 -52.75 Z M 27.296875 -204.875 L 27.296875 -202.265625 L 32.515625 -207.171875 L 32.65625 -209.625 Z M 78.96875 -175.890625 L 81.734375 -169 L 80.359375 -167.609375 L 81.734375 -167.609375 L 83.109375 -169 L 83.109375 -170.375 L 81.734375 -175.890625 Z M 58.421875 -213.46875 L 65.328125 -200.421875 L 67.9375 -200.28125 L 68.234375 -205.484375 L 63.328125 -210.703125 L 65.9375 -213.15625 L 68.546875 -213 L 72.84375 -197.515625 L 72.375 -187.390625 L 70.078125 -190 L 67.46875 -190.15625 L 67.171875 -182.484375 L 72.234375 -182.328125 L 69.46875 -179.875 L 69.46875 -177.28125 L 71.921875 -177.125 L 69.3125 -174.8125 L 69.15625 -172.21875 L 76.0625 -156.578125 L 73.453125 -154.125 L 73.296875 -151.65625 L 75.140625 -136.171875 L 74.984375 -133.71875 L 72.375 -131.265625 L 76.828125 -118.234375 L 73.921875 -110.71875 C 72.285156 -76.78125 74.019531 -59.707031 79.125 -59.5 L 86.640625 -56.59375 L 89.25 -59.046875 L 89.25 -56.4375 L 114.859375 -60.421875 L 124.984375 -55.8125 L 124.984375 -58.265625 L 127.4375 -55.671875 L 130.046875 -55.515625 L 137.703125 -57.65625 L 135.109375 -55.359375 L 134.953125 -52.75 L 137.5625 -52.59375 C 137.65625 -55.96875 140.617188 -57.601562 146.453125 -57.5 L 148.90625 -54.90625 L 148.75 -52.296875 L 146.140625 -51.375 L 148.59375 -48.765625 L 148.140625 -41.09375 L 145.21875 -31.125 L 150.28125 -20.703125 L 147.375 -13.1875 L 149.515625 -5.515625 L 149.515625 -2.90625 L 146.90625 -3.0625 L 147.0625 -8.125 C 142.769531 -3.320312 137.914062 -0.867188 132.5 -0.765625 L 130.046875 -3.53125 L 130.1875 -5.984375 L 107.03125 -2 L 104.578125 -4.75 L 91.703125 -2.765625 L 81.578125 -3.21875 L 81.734375 -8.28125 L 79.28125 -8.4375 L 78.96875 -3.375 L 81.421875 -0.765625 L 68.859375 -3.828125 L 61.03125 -1.6875 L 61.34375 -6.75 L 58.578125 -4.296875 L 56.125 -4.453125 L 53.671875 -7.046875 L 51.0625 -7.203125 L 50.90625 -2.140625 L 35.578125 -2.90625 L 33.125 -5.515625 L 30.515625 -3.0625 L 10.125 -4.140625 L 7.046875 -45.078125 L 9.65625 -47.53125 L 7.96875 -65.484375 L 9.359375 -93.390625 L 6.90625 -96.15625 L 9.5 -98.453125 L 9.65625 -101.0625 L 8.28125 -126.671875 L 11.046875 -129.125 L 8.4375 -129.125 L 11.046875 -131.578125 L 6.90625 -149.671875 L 9.8125 -157.1875 L 7.828125 -170.0625 L 10.421875 -169.90625 L 6.140625 -188.015625 C 6.953125 -204.984375 13.289062 -213.160156 25.15625 -212.546875 Z M 58.421875 -213.46875 "/></g></g><g transform="translate(462.031714, 285.527925)"><g><path d="M 232.640625 8.59375 L 232.640625 6.140625 L 235.09375 3.6875 L 230.171875 3.6875 L 230.171875 6.140625 Z M 205.953125 1.078125 L 205.796875 3.53125 L 215.609375 3.53125 L 215.609375 1.078125 Z M 219.4375 -161.9375 L 216.984375 -161.9375 L 216.984375 -166.84375 L 214.53125 -166.84375 L 214.53125 -159.484375 L 216.84375 -157.03125 L 219.296875 -157.03125 Z M 161.328125 -213.625 C 161.523438 -213.519531 167.195312 -213.414062 178.34375 -213.3125 L 178.34375 -215.765625 L 180.796875 -213.3125 L 214.84375 -213 C 218.519531 -213 220.875 -202.46875 221.90625 -181.40625 L 219.4375 -178.953125 L 219.4375 -176.5 L 221.90625 -174.046875 L 221.90625 -171.59375 L 219.4375 -161.9375 L 221.75 -161.9375 L 221.75 -157.03125 L 219.140625 -132.65625 L 223.734375 -103.359375 L 221.28125 -103.515625 L 223.734375 -96.15625 L 221.125 -79.125 L 223.4375 -69.3125 L 221.125 -69.3125 L 223.4375 -66.859375 L 223.4375 -64.40625 L 220.984375 -62.109375 L 223.4375 -54.75 L 220.984375 -52.296875 L 220.984375 -49.84375 L 223.28125 -42.625 L 220.828125 -40.171875 L 220.828125 -37.71875 L 223.28125 -35.265625 L 223.28125 -32.8125 L 220.515625 -10.890625 L 220.515625 -6.140625 L 227.875 -3.53125 L 227.875 -5.984375 C 237.175781 -1.078125 263.910156 6.382812 308.078125 16.40625 L 307.921875 21.3125 C 269.078125 18.144531 249.65625 13.953125 249.65625 8.734375 L 247.203125 11.046875 L 239.84375 11.046875 L 242.296875 8.59375 L 242.296875 6.140625 L 240 6.140625 L 235.09375 11.046875 L 232.640625 8.59375 L 232.640625 11.046875 L 227.71875 10.890625 L 227.71875 6.140625 L 225.265625 8.4375 L 220.359375 8.4375 L 222.8125 5.984375 L 222.96875 3.6875 L 220.515625 3.53125 L 222.96875 1.234375 L 222.96875 -3.6875 L 218.0625 -3.6875 L 218.0625 8.4375 L 213.15625 8.4375 L 210.703125 5.984375 L 208.25 8.4375 L 205.796875 8.28125 L 198.59375 5.828125 L 201.046875 3.375 L 201.046875 -1.375 L 193.6875 -3.828125 L 191.234375 -1.375 L 186.46875 -1.53125 L 188.921875 -3.828125 L 188.921875 -6.28125 L 184.015625 -6.28125 C 184.117188 -14.46875 176.046875 -18.609375 159.796875 -18.703125 L 157.34375 -18.703125 L 159.796875 -16.25 L 159.796875 -13.796875 L 154.890625 -13.953125 L 154.890625 -23.609375 L 162.25 -26.0625 L 160.40625 -91.703125 L 162.09375 -107.953125 L 116.234375 -55.671875 L 75.296875 -107.03125 L 72.84375 -109.5 L 70.390625 -109.5 L 67.78125 -87.71875 L 70.234375 -75.453125 L 69.921875 -51.375 C 70.128906 -53.726562 73.351562 -54.851562 79.59375 -54.75 L 79.59375 -52.453125 L 74.6875 -52.453125 L 74.6875 -47.53125 L 79.4375 -40.171875 C 69.726562 -39.046875 64.820312 -35.0625 64.71875 -28.21875 L 62.265625 -25.765625 L 64.71875 -23.3125 L 64.5625 -3.828125 L 62.109375 -3.828125 L 59.65625 -6.28125 L 57.203125 -3.828125 L 52.453125 -3.828125 C 52.546875 -15.691406 50.140625 -24.640625 45.234375 -30.671875 L 47.6875 -33.125 L 45.390625 -33.125 L 42.9375 -30.828125 L 45.234375 -28.375 L 45.234375 -23.46875 L 42.78125 -21.015625 L 42.78125 -18.5625 L 47.53125 -13.640625 L 47.53125 -11.1875 L 45.234375 -13.640625 L 42.78125 -13.640625 C 42.675781 -5.566406 36.953125 -1.582031 25.609375 -1.6875 L 25.609375 -6.59375 L 13.5 -4.296875 L 11.046875 -6.75 L 8.59375 -6.75 L 6.140625 -4.296875 L 6.140625 -6.75 L 8.59375 -9.203125 L 6.140625 -11.65625 L 6.28125 -13.953125 L 11.1875 -33.4375 L 6.4375 -40.796875 L 13.796875 -43.25 L 40.484375 -38.03125 L 52.75 -57.5 C 48.050781 -54.945312 33.484375 -53.773438 9.046875 -53.984375 L 9.203125 -68.703125 L 11.8125 -78.359375 L 9.359375 -88.171875 L 11.8125 -88.015625 L 9.359375 -90.484375 L 9.359375 -92.9375 L 11.96875 -100.296875 L 9.65625 -112.40625 L 10.125 -173.28125 L 7.671875 -175.734375 L 10.125 -178.1875 L 10.125 -180.640625 L 7.828125 -197.671875 L 10.28125 -197.671875 L 7.828125 -205.03125 C 9.554688 -211.46875 12.875 -214.6875 17.78125 -214.6875 L 34.8125 -212.078125 L 63.953125 -214.390625 L 66.40625 -211.9375 L 63.953125 -209.625 L 63.953125 -204.71875 L 68.859375 -204.71875 L 71.3125 -214.390625 C 73.863281 -209.890625 86.640625 -188.625 109.640625 -150.59375 L 117 -145.6875 Z M 171.90625 -6.4375 L 176.65625 -6.4375 L 181.5625 -1.53125 L 176.65625 -1.53125 L 176.65625 0.765625 L 184.015625 3.375 L 186.46875 0.921875 L 196.140625 0.921875 L 196.140625 8.28125 L 188.78125 3.375 L 188.78125 8.28125 L 176.65625 8.125 L 174.203125 5.671875 L 171.75 5.671875 L 171.75 8.125 L 169.296875 5.671875 L 164.390625 5.515625 L 161.9375 7.96875 L 159.640625 7.96875 L 157.1875 -1.6875 L 159.640625 -4.140625 L 164.546875 -4.140625 L 171.75 0.765625 L 174.203125 -1.53125 L 174.203125 -3.984375 Z M 255.796875 -85.71875 L 258.25 -85.71875 L 258.09375 -75.90625 L 255.796875 -75.90625 Z M 256.09375 -119.765625 L 258.546875 -119.765625 L 258.390625 -95.390625 L 255.9375 -95.390625 Z M 256.5625 -178.1875 L 259.015625 -178.1875 L 258.546875 -124.671875 L 256.09375 -124.671875 L 256.25 -146.609375 L 251.5 -146.609375 L 251.5 -149.0625 L 256.25 -149.0625 L 256.40625 -151.515625 L 253.953125 -166.078125 Z M 256.5625 -178.1875 "/></g></g></g><g fill="#bc0000" fill-opacity="1"><g transform="translate(694.681181, 285.527925)"><g><path d="M 31.4375 -214.53125 L 31.4375 -210.09375 L 42.625 -212.390625 L 40.328125 -210.09375 L 40.328125 -207.796875 L 44.78125 -207.796875 L 44.78125 -212.390625 L 47.078125 -212.390625 L 47.078125 -207.796875 L 51.53125 -207.796875 L 51.53125 -212.390625 L 60.578125 -212.390625 L 60.578125 -181.109375 L 62.71875 -178.8125 L 60.578125 -176.5 L 60.578125 -158.71875 L 55.96875 -158.71875 L 55.96875 -156.421875 L 53.828125 -158.71875 L 47.078125 -158.71875 L 47.078125 -156.421875 L 53.828125 -154.265625 L 55.96875 -156.421875 L 62.71875 -156.421875 L 62.71875 -151.96875 L 69.46875 -151.96875 L 80.65625 -154.265625 L 80.65625 -151.96875 L 82.8125 -154.265625 L 100.75 -154.265625 C 110.050781 -154.265625 120.476562 -156.460938 132.03125 -160.859375 L 132.03125 -163.171875 L 127.59375 -163.171875 L 125.28125 -160.859375 L 125.28125 -165.3125 L 127.59375 -167.609375 L 125.28125 -169.90625 L 125.28125 -172.0625 L 127.59375 -185.546875 L 125.28125 -192.15625 L 127.59375 -194.453125 L 125.28125 -194.453125 L 127.59375 -196.75 L 127.59375 -212.390625 L 149.984375 -212.390625 L 152.125 -210.09375 L 154.421875 -212.390625 L 156.578125 -212.390625 L 158.875 -210.09375 L 161.171875 -210.09375 L 170.0625 -212.390625 L 172.21875 -210.09375 L 174.515625 -210.09375 L 181.265625 -212.390625 L 188.015625 -210.09375 L 185.703125 -198.890625 L 188.015625 -198.890625 L 185.703125 -196.75 L 185.703125 -167.609375 L 183.40625 -165.3125 L 185.703125 -158.71875 L 190.15625 -158.71875 L 192.453125 -160.859375 L 194.609375 -160.859375 L 194.609375 -156.421875 L 208.09375 -156.421875 L 208.09375 -151.96875 C 202.0625 -151.96875 199.046875 -149.71875 199.046875 -145.21875 L 201.34375 -131.875 L 199.046875 -129.578125 L 201.34375 -127.4375 L 201.34375 -111.796875 L 203.65625 -11.1875 L 201.34375 -11.1875 L 203.65625 -8.890625 L 203.65625 2.140625 L 140.921875 2.140625 L 140.921875 -49.078125 L 138.78125 -51.375 L 143.234375 -64.71875 L 145.53125 -64.71875 L 145.53125 -67.015625 L 129.734375 -73.765625 L 78.359375 -73.765625 L 78.359375 -37.875 L 80.65625 0 L 58.265625 0 L 55.96875 2.140625 L 53.828125 0 L 29.140625 0 L 13.5 -2.140625 L 15.796875 -4.453125 L 15.796875 -93.84375 L 18.09375 -96.15625 L 18.09375 -98.296875 L -2 -102.75 L -2 -100.59375 L -11.046875 -102.75 L -11.046875 -109.5 C -3.578125 -109.5 0.15625 -111.742188 0.15625 -116.234375 L -2 -118.390625 L 0.15625 -118.390625 L -2 -120.6875 L -2 -122.828125 C -2 -136.328125 2.445312 -143.078125 11.34375 -143.078125 L 11.34375 -145.21875 L 0.15625 -145.21875 L 0.15625 -149.671875 L 4.59375 -154.265625 L 6.90625 -154.265625 L 4.59375 -151.96875 L 4.59375 -149.671875 L 6.90625 -149.671875 L 9.046875 -151.96875 L 11.34375 -149.671875 L 13.5 -149.671875 L 15.796875 -151.96875 L 18.09375 -151.96875 L 20.25 -149.671875 L 20.25 -151.96875 L 18.09375 -154.265625 L 20.25 -156.421875 L 13.5 -156.421875 L 13.5 -151.96875 C 4.601562 -154.9375 0.15625 -158.671875 0.15625 -163.171875 L 2.296875 -169.90625 L 0.15625 -169.90625 L 2.296875 -172.0625 L 2.296875 -212.390625 L 26.984375 -212.390625 L 29.140625 -214.53125 Z M 31.4375 -207.796875 L 35.890625 -203.34375 L 38.1875 -203.34375 L 38.1875 -207.796875 Z M 136.484375 -196.75 L 136.484375 -192.15625 L 138.78125 -192.15625 L 143.234375 -196.75 Z M 33.734375 -187.703125 L 33.734375 -183.25 L 40.328125 -183.25 L 40.328125 -187.703125 Z M 6.90625 -176.5 L 6.90625 -174.359375 L 11.34375 -174.359375 L 9.046875 -172.0625 L 9.046875 -169.90625 L 11.34375 -169.90625 L 13.5 -172.0625 L 15.796875 -172.0625 L 15.796875 -167.609375 L 18.09375 -167.609375 L 18.09375 -172.0625 L 9.046875 -176.5 Z M 134.328125 -169.90625 L 134.328125 -167.609375 L 136.484375 -165.3125 L 136.484375 -163.171875 L 134.328125 -160.859375 L 136.484375 -160.859375 L 140.921875 -165.3125 L 138.78125 -167.609375 L 143.234375 -167.609375 L 143.234375 -169.90625 Z M 156.578125 -167.609375 L 161.171875 -163.171875 L 163.3125 -163.171875 L 161.171875 -165.3125 L 161.171875 -167.609375 L 165.625 -167.609375 L 165.625 -169.90625 L 163.3125 -169.90625 Z M 172.21875 -165.3125 L 172.21875 -163.171875 L 178.953125 -163.171875 L 181.265625 -165.3125 L 181.265625 -167.609375 Z M 149.984375 -160.859375 L 149.984375 -158.71875 L 154.421875 -158.71875 L 156.578125 -160.859375 L 156.578125 -163.171875 Z M 22.546875 -160.859375 L 24.6875 -158.71875 L 24.6875 -156.421875 L 22.546875 -154.265625 L 22.546875 -151.96875 L 26.984375 -151.96875 L 29.140625 -158.71875 Z M 78.359375 -147.53125 L 78.359375 -143.078125 L 76.21875 -143.078125 L 78.359375 -136.328125 L 71.609375 -125.140625 L 73.921875 -122.828125 L 76.21875 -122.828125 L 76.21875 -129.578125 L 118.6875 -129.578125 L 120.84375 -127.4375 L 123.140625 -129.578125 L 134.328125 -127.4375 L 136.484375 -129.578125 L 138.78125 -136.328125 L 140.921875 -136.328125 L 138.78125 -138.625 L 138.78125 -143.078125 L 140.921875 -145.21875 L 140.921875 -147.53125 L 138.78125 -149.671875 L 134.328125 -149.671875 Z M 13.5 -147.53125 L 13.5 -145.21875 L 18.09375 -136.328125 L 15.796875 -134.03125 L 20.25 -134.03125 L 20.25 -136.328125 L 18.09375 -138.625 L 20.25 -140.78125 L 20.25 -147.53125 Z M 62.71875 -140.78125 L 65.015625 -134.03125 L 69.46875 -134.03125 L 69.46875 -145.21875 Z M 188.015625 -145.21875 L 192.453125 -140.78125 L 194.609375 -140.78125 L 190.15625 -145.21875 Z M 163.3125 -138.625 L 167.765625 -134.03125 L 170.0625 -134.03125 L 170.0625 -138.625 L 172.21875 -136.328125 L 174.515625 -136.328125 L 174.515625 -138.625 L 172.21875 -140.78125 L 170.0625 -140.78125 Z M 188.015625 -131.875 L 190.15625 -129.578125 L 194.609375 -129.578125 L 199.046875 -134.03125 L 199.046875 -136.328125 L 192.453125 -136.328125 Z M 29.140625 -129.578125 L 29.140625 -109.5 L 38.1875 -109.5 L 38.1875 -118.390625 L 33.734375 -125.140625 L 35.890625 -127.4375 L 33.734375 -129.578125 Z M 80.65625 -127.4375 L 85.109375 -122.828125 L 87.25 -122.828125 L 87.25 -127.4375 Z M 183.40625 -125.140625 L 185.703125 -116.234375 L 188.015625 -116.234375 L 188.015625 -122.828125 L 185.703125 -125.140625 Z M 69.46875 -122.828125 L 67.171875 -116.234375 C 71.671875 -116.234375 73.921875 -113.988281 73.921875 -109.5 L 76.21875 -109.5 L 91.859375 -111.796875 L 91.859375 -116.234375 L 89.5625 -116.234375 L 87.25 -113.9375 L 85.109375 -113.9375 L 85.109375 -118.390625 L 89.5625 -118.390625 L 89.5625 -120.6875 L 80.65625 -120.6875 L 80.65625 -113.9375 L 73.921875 -113.9375 L 71.609375 -122.828125 Z M 51.53125 -113.9375 L 51.53125 -111.796875 L 53.828125 -111.796875 L 53.828125 -116.234375 L 62.71875 -109.5 L 69.46875 -109.5 L 55.96875 -118.390625 Z M 129.734375 -109.5 L 132.03125 -98.296875 L 134.328125 -98.296875 L 136.484375 -105.046875 Z M 26.984375 -107.1875 L 26.984375 -98.296875 L 31.4375 -98.296875 L 31.4375 -107.1875 Z M 80.65625 -107.1875 L 80.65625 -100.59375 L 85.109375 -100.59375 L 85.109375 -107.1875 Z M 51.53125 -100.59375 L 53.828125 -100.59375 L 55.96875 -102.75 L 58.265625 -102.75 L 67.171875 -100.59375 L 69.46875 -100.59375 L 69.46875 -105.046875 L 65.015625 -105.046875 L 62.71875 -102.75 L 60.578125 -105.046875 L 55.96875 -105.046875 Z M 91.859375 -102.75 L 91.859375 -100.59375 L 96.296875 -100.59375 L 96.296875 -98.296875 L 103.046875 -100.59375 L 98.453125 -105.046875 Z M 100.75 -96.15625 L 100.75 -87.109375 L 103.046875 -89.40625 L 105.203125 -87.109375 L 109.640625 -87.109375 L 109.640625 -89.40625 C 105.242188 -89.40625 103.046875 -91.65625 103.046875 -96.15625 Z M 87.25 -93.84375 L 89.5625 -91.546875 L 89.5625 -87.109375 C 83.625 -87.109375 80.65625 -84.140625 80.65625 -78.203125 L 89.5625 -78.203125 L 87.25 -80.359375 L 87.25 -82.65625 L 96.296875 -82.65625 C 94.460938 -90.113281 92.21875 -93.84375 89.5625 -93.84375 Z M 73.921875 -89.40625 L 73.921875 -84.953125 L 80.65625 -82.65625 L 80.65625 -87.109375 Z M 136.484375 -80.359375 L 129.734375 -78.203125 L 129.734375 -75.90625 L 138.78125 -75.90625 L 140.921875 -78.203125 L 140.921875 -73.765625 L 145.53125 -73.765625 L 145.53125 -80.359375 L 140.921875 -80.359375 L 138.78125 -82.65625 Z M 105.203125 -75.90625 L 107.5 -75.90625 L 111.953125 -80.359375 L 109.640625 -80.359375 Z M 105.203125 -75.90625 "/></g></g><g transform="translate(905.695321, 285.527925)"><g><path d="M 60.578125 -219.90625 L 62.71875 -217.765625 L 113.78125 -217.765625 L 115.9375 -211.171875 L 113.78125 -211.171875 L 138.171875 -129.125 L 138.171875 -117.921875 L 162.546875 -113.640625 L 169.140625 -115.78125 L 169.140625 -113.640625 L 171.453125 -106.890625 L 164.703125 -104.734375 C 164.703125 -95.128906 174.3125 -68.5 193.53125 -24.84375 L 202.421875 3.828125 L 200.125 6.140625 L 189.078125 6.140625 L 186.9375 3.828125 L 184.640625 3.828125 L 182.484375 6.140625 L 182.484375 3.828125 L 180.1875 6.140625 L 151.359375 6.140625 C 141.742188 6.140625 133.613281 -3.472656 126.96875 -22.703125 L 118.234375 -24.84375 L 65.015625 -24.84375 L 53.828125 1.6875 L 51.671875 3.828125 L 51.671875 6.140625 L 49.375 3.828125 L 47.234375 6.140625 L -1.53125 6.140625 L -1.53125 -7.203125 C -1.53125 -13.441406 4.394531 -29.695312 16.25 -55.96875 L 13.953125 -55.96875 C 22.847656 -73.65625 27.296875 -88.429688 27.296875 -100.296875 L 18.40625 -102.4375 L 7.359375 -100.296875 L -1.53125 -102.4375 L -1.53125 -113.640625 L 2.90625 -113.640625 L 5.0625 -111.328125 L 7.359375 -111.328125 L 45.078125 -202.265625 L 42.78125 -204.421875 C 45.34375 -204.421875 48.304688 -208.867188 51.671875 -217.765625 Z M 71.609375 -131.265625 L 67.171875 -115.78125 L 69.46875 -115.78125 L 80.515625 -117.921875 L 78.203125 -131.265625 Z M 80.515625 -80.359375 L 82.65625 -78.0625 L 91.546875 -78.0625 L 100.4375 -80.359375 L 111.484375 -75.90625 C 107.804688 -93.59375 104.125 -102.4375 100.4375 -102.4375 L 91.546875 -102.4375 C 89.296875 -102.4375 85.617188 -95.078125 80.515625 -80.359375 Z M 80.515625 -80.359375 "/></g></g><g transform="translate(1099.687244, 285.527925)"><g><path d="M 59.65625 -160.25 L 63.484375 -156.421875 L 65.328125 -158.265625 L 65.328125 -160.25 Z M 79.28125 -19.171875 L 79.28125 -13.34375 L 83.109375 -17.171875 L 81.125 -19.171875 Z M 65.9375 -36.34375 L 63.953125 -34.34375 L 63.953125 -32.515625 L 69.78125 -32.515625 Z M 79.28125 -87.875 L 77.28125 -86.03125 L 77.28125 -84.03125 L 83.109375 -84.03125 Z M 88.796875 -95.53125 L 88.796875 -91.703125 L 94.46875 -91.703125 L 94.46875 -95.53125 Z M 120.6875 -154.421875 L 122.6875 -152.578125 L 128.359375 -154.421875 L 128.359375 -158.265625 L 124.515625 -158.265625 Z M 63.03125 -194.90625 L 67.328125 -190.765625 L 65.328125 -188.78125 L 65.328125 -186.9375 C 70.128906 -186.625 74.628906 -178.34375 78.828125 -162.09375 L 76.828125 -160.25 L 74.984375 -160.25 L 73 -162.09375 L 69.15625 -156.421875 C 69.15625 -151.003906 72.378906 -144.613281 78.828125 -137.25 L 82.5 -137.25 L 90.171875 -152.578125 L 90.171875 -154.421875 L 92.15625 -154.421875 L 101.671875 -152.578125 C 101.671875 -154.828125 104.835938 -156.722656 111.171875 -158.265625 L 111.171875 -154.421875 L 116.859375 -154.421875 L 116.859375 -158.265625 L 103.515625 -160.25 L 120.6875 -211.78125 L 137.859375 -211.78125 L 147.53125 -213.625 L 147.53125 -209.78125 L 149.359375 -209.78125 L 155.03125 -211.78125 L 157.03125 -209.78125 L 157.03125 -213.625 L 162.703125 -211.78125 L 176.046875 -213.625 L 178.046875 -211.78125 C 179.265625 -201.863281 179.265625 -200.582031 178.046875 -207.9375 L 174.203125 -207.9375 L 153.203125 -158.265625 L 139.859375 -154.421875 L 137.859375 -156.421875 L 136.015625 -154.421875 L 136.015625 -152.578125 L 141.703125 -150.59375 L 130.34375 -122.0625 L 132.1875 -120.078125 C 128.40625 -120.078125 120.125 -101.625 107.34375 -64.71875 L 105.5 -55.203125 L 107.34375 -49.53125 L 105.5 -43.703125 C 106.425781 -36.140625 107.707031 -32.359375 109.34375 -32.359375 L 107.34375 -30.359375 L 111.171875 -11.34375 C 109.640625 -2.445312 107.75 2 105.5 2 L 99.671875 2 L 97.84375 0 L 76.828125 3.828125 L 69.15625 2 L 61.5 2 L 59.65625 3.828125 L 57.8125 3.828125 L 53.984375 0 L 55.8125 -5.515625 L 53.984375 -30.359375 L 55.8125 -32.359375 L 55.8125 -34.203125 L 51.984375 -53.359375 L 53.984375 -55.203125 L 53.984375 -57.046875 C 53.265625 -69.828125 50.707031 -76.21875 46.3125 -76.21875 L 46.3125 -78.0625 L 48.15625 -80.046875 L 48.15625 -81.890625 C 44.375 -81.890625 42.484375 -85.109375 42.484375 -91.546875 C 39.304688 -91.546875 35.472656 -98.5 30.984375 -112.40625 L 27.140625 -118.234375 L 29.140625 -120.078125 C 27.191406 -120.078125 21.46875 -130.25 11.96875 -150.59375 L 11.96875 -156.421875 L 21.46875 -158.265625 L 27.140625 -156.421875 L 36.796875 -158.265625 L 38.640625 -156.421875 L 40.640625 -158.265625 L 40.640625 -162.09375 L 36.796875 -165.921875 L 34.8125 -164.078125 L 30.984375 -164.078125 C 23.410156 -164.078125 19.625 -168.523438 19.625 -177.421875 L 17.640625 -185.09375 L 11.96875 -190.765625 L 9.96875 -196.4375 L 13.796875 -196.4375 L 11.96875 -198.4375 L 11.96875 -200.28125 L 9.96875 -198.4375 L 6.140625 -198.4375 L 8.125 -200.28125 L 8.125 -202.265625 L 4.296875 -209.78125 L 13.796875 -211.78125 L 19.625 -209.78125 L 21.46875 -211.78125 L 23.3125 -211.78125 L 25.296875 -209.78125 L 27.140625 -209.78125 L 44.3125 -213.625 C 54.738281 -211.570312 60.414062 -206.613281 61.34375 -198.75 L 58.890625 -198.75 L 58.890625 -196.296875 Z M 63.03125 -194.90625 "/></g></g></g></g></g></svg>
